<?xml version="1.0" encoding="utf-8"?>
<!-- Generator: Adobe Illustrator 15.0.0, SVG Export Plug-In . SVG Version: 6.00 Build 0)  -->
<!DOCTYPE svg PUBLIC "-//W3C//DTD SVG 1.1//EN" "http://www.w3.org/Graphics/SVG/1.1/DTD/svg11.dtd">
<svg version="1.1" id="Слой_2" xmlns="http://www.w3.org/2000/svg" xmlns:xlink="http://www.w3.org/1999/xlink" x="0px" y="0px"
	 width="146px" height="93px" viewBox="0 0 146 93" enable-background="new 0 0 146 93" xml:space="preserve">
<g>
	<path fill="#FFFFFF" d="M146,86.993c0,3.313-2.688,6-6,6H6c-3.313,0-6-2.688-6-6v-81c0-3.313,2.687-6,6-6h134c3.313,0,6,2.688,6,6
		V86.993z"/>
	<path fill="#DBE1E5" d="M139.544,93.007H6.456C2.896,93.007,0,90.122,0,86.575V6.437c0-3.546,2.896-6.431,6.456-6.431h133.088
		c3.56,0,6.456,2.885,6.456,6.431v80.139C146,90.122,143.104,93.007,139.544,93.007z M6.456,0.995c-3.012,0-5.462,2.441-5.462,5.441
		v80.139c0,3.002,2.451,5.439,5.462,5.439h133.088c3.013,0,5.463-2.438,5.463-5.439V6.437c0-3-2.45-5.441-5.463-5.441H6.456z"/>
</g>
<g id="Слой_1">
	<g>
		<path fill="#FFCB05" d="M62.241,39.48c-8.003,0-14.768,3.66-14.768,7.991s6.762,7.988,14.765,7.988
			C70.225,55.46,77,51.819,77,47.502v-0.03c0-0.004,0.004-0.008,0.004-0.01C76.994,43.135,70.24,39.48,62.241,39.48z"/>
		<path fill="#FFCB05" d="M79,55.411v1.145c0,0.006,0.003,0.01,0.003,0.016c0,0.011-0.003,0.022-0.003,0.035v5.612
			c2,0.252,3.465,0.396,4.84,0.396c7.973,0,14.16-3.607,15.16-7.938v-3.973c-3,3.03-8.775,5.032-15.16,5.032
			C82.069,55.735,81,55.683,79,55.411z"/>
		<path fill="#FFCB05" d="M47,52.646v3.926c0,4.333,6.998,7.992,15,7.992c7.986,0,15-3.643,15-7.962v-3.954
			c-3,3.03-8.613,5.034-15,5.034C55.613,57.682,50,55.678,47,52.646z"/>
		<path fill="#FFCB05" d="M47,61.747v3.928c0,4.333,7.003,7.99,15.006,7.99c8.445,0,14.994-4.487,14.994-8.583
			c0-0.003,0-0.092,0-0.096v-3.237c-3,3.031-8.613,5.036-15,5.036C55.613,66.785,50,64.779,47,61.747z"/>
		<path fill="#FFCB05" d="M79.111,46.271C79.018,46.639,79,47.1,79,47.507v5.64c2,0.312,3.021,0.368,4.84,0.368
			c7.973,0,14.16-3.63,15.16-7.939v-3.972c-3,3.029-8.66,5.032-15.045,5.032C82.399,46.636,80.588,46.512,79.111,46.271z"/>
		<path fill="#FFCB05" d="M69,32.495v5.565c4,1.071,7.705,3.147,9.334,5.757c1.762,0.396,3.744,0.598,5.66,0.598
			c7.973,0,14.006-3.631,15.006-7.941V32.5c-3,3.03-8.612,5.033-14.997,5.033C77.614,37.533,72,35.528,69,32.495z"/>
		<path fill="#FFCB05" d="M83.746,19.33c-8.004,0-14.645,3.659-14.645,7.99c0,4.332,6.887,7.992,14.891,7.992
			C91.965,35.312,98,31.68,99,27.37v-0.05c0-0.006,0.012-0.094,0.012-0.1C98.994,22.896,91.74,19.33,83.746,19.33z"/>
		<path fill="#CC8B44" d="M101.002,36.422c0-0.01-0.006-0.018-0.006-0.028l-0.111-8.948c0-0.03,0.021-0.092,0.021-0.117
			c0-5.726-7.381-10.216-16.951-10.216S67,21.593,67,27.32c0,0.004,0,0.008,0,0.012v10.276c-2-0.22-3.143-0.348-4.687-0.348
			C52.744,37.26,45,41.745,45,47.472v18.203c0,5.727,7.584,10.212,17.153,10.212c4.405,0,8.671-1.133,11.929-3.192
			c3.295-2.078,4.896-4.774,4.896-7.593c0-0.004,0.022-0.125,0.022-0.129V64.47c2,0.233,3.212,0.365,4.593,0.365
			c9.512,0,17.407-4.261,17.407-9.935c0-0.006,0-0.117,0-0.121l-0.006-0.083c0-0.024,0.008-0.047,0.008-0.071
			c0-0.01-0.002-0.017-0.002-0.028v-9c0-0.024,0.006-0.048,0.006-0.071c0-0.01-0.006-0.019-0.006-0.028v-9.003
			C101,36.47,101.002,36.446,101.002,36.422z M77,64.986c0,0.004,0,0.093,0,0.096c0,4.096-6.549,8.583-14.994,8.583
			c-8.003,0-15.006-3.657-15.006-7.99v-3.928c3,3.032,8.613,5.038,15,5.038c6.386,0,12-2.005,15-5.036V64.986z M77,56.602
			c0,4.319-7.014,7.962-15,7.962c-8.003,0-15-3.659-15-7.992v-3.926c3,3.032,8.613,5.036,15,5.036c6.386,0,12-2.004,15-5.034V56.602
			z M77,47.472v0.03c0,4.317-6.775,7.958-14.761,7.958c-8.003,0-14.763-3.657-14.763-7.988s6.764-7.991,14.767-7.991
			c8,0,14.754,3.654,14.764,7.981C77.006,47.464,77,47.468,77,47.472z M99,54.676c-1,4.331-7.188,7.938-15.16,7.938
			c-1.375,0-2.84-0.144-4.84-0.396v-5.612c0-0.013,0.003-0.024,0.003-0.035c0-0.006-0.003-0.01-0.003-0.016v-1.145
			c2,0.271,3.069,0.324,4.84,0.324c6.385,0,12.16-2.002,15.16-5.032V54.676z M99,45.575c-1,4.31-7.188,7.939-15.16,7.939
			c-1.819,0-2.84-0.057-4.84-0.368v-5.64c0-0.407,0.018-0.868,0.111-1.236c1.477,0.241,3.288,0.365,4.844,0.365
			C90.34,46.636,96,44.633,99,41.604V45.575z M99,36.473c-1,4.311-7.035,7.941-15.008,7.941c-1.916,0-3.895-0.202-5.657-0.598
			C76.707,41.207,73,39.131,69,38.06v-5.565c3,3.033,8.614,5.039,15.003,5.039C90.388,37.533,96,35.53,99,32.5V36.473z M99,27.32
			v0.05c-1,4.31-7.035,7.942-15.008,7.942c-8.004,0-14.889-3.66-14.889-7.992c0-4.331,6.639-7.99,14.643-7.99
			c7.994,0,15.25,3.566,15.268,7.89C99.014,27.226,99,27.314,99,27.32z"/>
	</g>
</g>
</svg>
