<?xml version="1.0" encoding="utf-8"?>
<!-- Generator: Adobe Illustrator 15.0.0, SVG Export Plug-In . SVG Version: 6.00 Build 0)  -->
<!DOCTYPE svg PUBLIC "-//W3C//DTD SVG 1.1//EN" "http://www.w3.org/Graphics/SVG/1.1/DTD/svg11.dtd">
<svg version="1.1" xmlns="http://www.w3.org/2000/svg" xmlns:xlink="http://www.w3.org/1999/xlink" x="0px" y="0px" width="146px"
	 height="93px" viewBox="0 0 146 93" enable-background="new 0 0 146 93" xml:space="preserve">
<g id="Слой_1">
	<g>
		<path fill="#F8FAFB" d="M146,87c0,3.313-2.687,6-6,6H6c-3.313,0-6-2.687-6-6V6c0-3.313,2.687-6,6-6h134c3.313,0,6,2.687,6,6V87z"
			/>
		<path fill="#DBE1E5" d="M139.544,93H6.456C2.896,93,0,90.115,0,86.568V6.442c0-3.545,2.896-6.43,6.456-6.43h133.088
			c3.56,0,6.456,2.884,6.456,6.43v80.126C146,90.115,143.104,93,139.544,93z M6.456,1.002c-3.012,0-5.462,2.441-5.462,5.44v80.126
			c0,3.002,2.451,5.438,5.462,5.438h133.088c3.013,0,5.463-2.438,5.463-5.438V6.442c0-3-2.45-5.44-5.463-5.44H6.456z"/>
	</g>
</g>
<g id="Слой_3">
	<g>
		<path fill="#D3DBDF" d="M73.145,20.667c-0.273,0-0.582,0.005-0.854,0.013L72,20.688v1.583l0.307-0.007
			c0.266-0.007,0.55-0.013,0.818-0.013c14.81,0,26.867,12.048,26.867,26.859c0,14.809-12.042,26.856-26.852,26.856
			S46.285,63.917,46.285,49.108c0-8.559,3.841-16.408,10.706-21.533L57,27.497v-1.929l-0.314,0.29
			c-7.563,5.338-12.03,14.03-12.03,23.25c0,15.681,12.782,28.438,28.463,28.438c15.683,0,28.451-12.757,28.451-28.438
			C101.57,33.425,88.825,20.667,73.145,20.667z"/>
		<path fill="#FFFFFF" d="M58.134,24.555v-9.144h0.924v0.008h0.82v-0.008H60.8v0.008h0.817v-0.008h0.931v0.008h0.816v-0.008h0.929
			v0.008h0.841V15.41h0.923v0.009h0.819V15.41H67.8v0.009h0.817V15.41h0.933v0.009h0.817V15.41h0.925v0.009h0.01v13.604H71.29v0.602
			l-6.158,6.052v-3.905l2.809-2.748h-1.197l-1.609,1.583v-1.583h-0.841v1.584l-1.611-1.584h-1.198l2.808,2.745v3.908l-6.16-6.052
			v-3.879l0.013,0.013v-1.195L58.134,24.555z M74.031,43.991c0-0.359,0.188-0.678,0.466-0.863c-0.38-0.528-0.604-1.168-0.604-1.871
			c0-1.78,1.444-3.23,3.224-3.23c1.787,0,3.236,1.451,3.236,3.23c0,0.631-0.187,1.213-0.499,1.704h0.65h14.337
			c0.421,0,0.775,0.359,0.775,0.79v0.482c0,0.432-0.354,0.789-0.775,0.789h-2.209v0.677h1.094v0.948h-1.094v0.988h1.094v1.814
			h-1.094v-0.824h-1.631v0.822h-1.103v-1.814h1.103v-0.987h-1.103v-0.948h1.103v-0.677h-8.435h-2.713
			c0.313,0.493,0.499,1.078,0.499,1.704c0,1.783-1.449,3.229-3.236,3.229c-1.779,0-3.224-1.445-3.224-3.229
			c0-0.701,0.225-1.343,0.604-1.873C74.22,44.669,74.031,44.354,74.031,43.991z M76.851,53.251h1.067
			c1.501,0,2.525,0.504,3.068,1.492l-0.243-1.228h17.089c-0.041,0.333-0.089,0.666-0.142,0.991h-7.297v13.711
			c-0.666,0.627-1.369,1.215-2.098,1.762v-6.305c0-1.176-0.228-1.904-1.402-2.318l1.402-6.793H85.67l-0.414,7.418h-0.313
			l-0.413-7.418h-2.494l1.242,6.793c-1.128,0.381-1.393,1.219-1.393,2.318v9.768c-0.493,0.174-0.997,0.336-1.502,0.482V63.253
			h-2.468v11.238c-0.355,0.063-0.712,0.119-1.068,0.16V56.543h1.068v5.646h2.468v-5.283c0-0.951-0.171-1.617-0.533-1.998
			c-0.71-0.704-2.07-0.568-3.003-0.568c-0.91,0-1.565,0.19-1.926,0.568c-0.359,0.382-0.549,1.047-0.549,1.998v17.945
			c-0.229,0.006-0.453,0.006-0.683,0.006c-0.126,0-0.244,0-0.363-0.002v-5.973c-0.508,1.133-1.594,1.699-3.249,1.699v4.012
			c-0.371-0.057-0.729-0.121-1.092-0.189v-4.887c0.176,0,0.363,0,0.554,0.018c0.87,0,1.924,0,2.491-0.57
			c0.381-0.359,0.558-1.008,0.558-1.939V56.714c0-0.928-0.177-1.581-0.558-1.938c-0.376-0.361-1.026-0.557-1.953-0.557h-3.597
			v19.551c-0.362-0.111-0.728-0.232-1.083-0.359V53.153h4.68c1.906,0,3.049,0.752,3.441,2.255
			C73.934,53.974,75.037,53.251,76.851,53.251z M93.87,57.474h-0.607v-0.991h4.015c-0.134,0.548-0.294,1.085-0.463,1.62
			C96.141,57.431,94.945,57.441,93.87,57.474z M94.478,59.454v3.711c-0.377,0.623-0.779,1.225-1.213,1.811v-5.521H94.478z
			 M85.655,63.364v8.35c-0.369,0.209-0.742,0.406-1.127,0.594v-8.945h1.127V63.364z M68.991,67.382V56.351h1.09v11.031H68.991z
			 M65.131,40.749v-3.908l6.158-6.021v3.876L65.131,40.749z M71.289,35.89v3.875l-6.158,6.056v-3.909L71.289,35.89z M65.131,46.864
			l6.158-6.021v4.106l-6.158,6.054V46.864z M55.654,55.654c1.303,1.296,2.918,2.845,5.331,5.208c1.036,1.006,3.05,2.545,3.05,6.516
			v4.709c-0.401-0.992-0.709-1.82-2.491-3.561c-0.07-0.072-5.815-5.691-6.383-6.242c-0.888-1.004-2.633-3.459-2.633-7.305v-3.474
			C52.527,51.506,53.186,53.181,55.654,55.654z M52.527,45.021V41c0,0,0.656,2.226,3.124,4.701c1.302,1.295,2.92,2.845,5.333,5.2
			c1.034,1.011,3.048,2.549,3.048,6.518v4.461c-0.401-0.991-0.71-1.566-2.488-3.307c-0.082-0.082-5.813-5.717-6.374-6.271
			C54.203,51.339,52.527,48.869,52.527,45.021z M58.131,44.951v-4.106l6.16,6.02v4.143L58.131,44.951z M58.131,39.765v-3.874
			l6.16,6.019v3.911L58.131,39.765z M58.131,34.694v-3.876l6.16,6.021v3.91L58.131,34.694z"/>
		<polygon fill="#D3DBDF" points="89.168,62.019 89.168,54.799 87.995,60.895 		"/>
		<polygon fill="#FFFFFF" points="59.879,22.383 59.879,15.419 59.058,15.419 59.058,21.583 		"/>
		<polygon fill="#FFFFFF" points="61.617,24.087 61.617,15.419 60.801,15.419 60.801,23.291 		"/>
		<polygon fill="#FFFFFF" points="62.549,24.994 63.364,25.794 63.364,15.419 62.549,15.419 		"/>
		<polygon fill="#FFFFFF" points="66.057,25.794 66.876,24.993 66.876,15.419 66.057,15.419 		"/>
		<polygon fill="#FFFFFF" points="67.8,24.087 68.617,23.292 68.617,15.419 67.8,15.419 		"/>
		<rect x="64.293" y="15.419" fill="#FFFFFF" width="0.84" height="13.604"/>
		<polygon fill="#D3DBDF" points="71.289,40.845 65.131,46.864 65.131,51.005 71.289,44.951 		"/>
		<polygon fill="#D3DBDF" points="67.939,29.023 65.131,31.771 65.131,35.677 71.289,29.625 71.289,29.023 71.289,25.746 		"/>
		<polygon fill="#D3DBDF" points="71.289,30.819 65.131,36.841 65.131,40.749 71.289,34.696 		"/>
		<polygon fill="#D3DBDF" points="62.682,29.023 64.293,30.607 64.293,29.023 64.293,15.419 64.293,15.411 63.364,15.411 
			63.364,15.419 63.364,25.794 62.549,24.994 62.549,15.419 62.549,15.411 61.617,15.411 61.617,15.419 61.617,24.087 
			60.801,23.291 60.801,15.419 60.801,15.411 59.879,15.411 59.879,15.419 59.879,22.383 59.058,21.583 59.058,15.419 
			59.058,15.411 58.134,15.411 58.134,24.555 58.144,24.563 		"/>
		<polygon fill="#D3DBDF" points="65.131,45.819 71.289,39.765 71.289,35.89 65.131,41.91 		"/>
		<polygon fill="#D3DBDF" points="64.291,46.864 58.131,40.845 58.131,44.951 64.291,51.005 		"/>
		<polygon fill="#D3DBDF" points="65.134,29.023 65.134,30.607 66.743,29.023 71.29,24.553 71.29,15.419 71.29,15.41 70.366,15.41 
			70.366,15.419 70.366,21.585 69.549,22.382 69.549,15.419 69.549,15.41 68.617,15.41 68.617,15.419 68.617,23.292 67.8,24.087 
			67.8,15.419 67.8,15.41 66.876,15.41 66.876,15.419 66.876,24.993 66.057,25.794 66.057,15.419 66.057,15.41 65.134,15.41 
			65.134,15.419 		"/>
		<polygon fill="#D3DBDF" points="58.144,25.759 58.131,25.746 58.131,29.625 64.291,35.677 64.291,31.769 61.483,29.023 		"/>
		<polygon fill="#D3DBDF" points="64.291,36.839 58.131,30.818 58.131,34.694 64.291,40.749 		"/>
		<polygon fill="#D3DBDF" points="64.291,41.909 58.131,35.891 58.131,39.765 64.291,45.82 		"/>
		<path fill="#D3DBDF" d="M77.116,49.954c1.787,0,3.236-1.445,3.236-3.229c0-0.626-0.187-1.211-0.499-1.704h2.713h8.435v0.677
			h-1.103v0.948h1.103v0.987h-1.103v1.814h1.103v-0.822h1.631v0.822h1.094v-1.814h-1.094v-0.987h1.094v-0.948h-1.094v-0.677h2.209
			c0.421,0,0.775-0.357,0.775-0.789V43.75c0-0.43-0.354-0.79-0.775-0.79H80.504h-0.65c0.313-0.491,0.501-1.074,0.501-1.704
			c0-1.78-1.451-3.23-3.237-3.23c-1.779,0-3.224,1.451-3.224,3.23c0,0.702,0.224,1.343,0.604,1.871
			c-0.277,0.186-0.465,0.503-0.465,0.862c0,0.363,0.188,0.678,0.465,0.861c-0.38,0.53-0.604,1.172-0.604,1.873
			C73.893,48.509,75.337,49.954,77.116,49.954z M75.723,43.991c0-0.413,0.186-0.782,0.474-1.037l-0.467-0.786
			c-0.171-0.261-0.272-0.574-0.272-0.912c0-0.918,0.746-1.663,1.659-1.663c0.92,0,1.67,0.745,1.67,1.663
			c0,0.681-0.784,2.297-0.784,2.297v0.876c0,0,0.784,1.617,0.784,2.297c0,0.919-0.75,1.662-1.67,1.662
			c-0.913,0-1.659-0.743-1.659-1.662c0-0.338,0.102-0.654,0.272-0.913l0.467-0.784C75.908,44.774,75.723,44.404,75.723,43.991z"/>
		<path fill="#D3DBDF" d="M64.034,61.88v-4.461c0-3.968-2.015-5.507-3.049-6.517c-2.413-2.356-4.031-3.906-5.333-5.2
			C53.186,43.226,52.528,41,52.528,41v4.021c0,3.849,1.676,6.317,2.644,7.281c0.561,0.555,6.291,6.19,6.373,6.271
			C63.323,60.312,63.632,60.89,64.034,61.88z"/>
		<path fill="#D3DBDF" d="M52.527,54.979c0,3.846,1.746,6.301,2.633,7.305c0.568,0.551,6.313,6.168,6.384,6.242
			c1.781,1.74,2.089,2.57,2.491,3.561v-4.709c0-3.971-2.015-5.51-3.05-6.516c-2.414-2.363-4.029-3.912-5.331-5.208
			c-2.47-2.474-3.126-4.148-3.126-4.148L52.527,54.979L52.527,54.979z"/>
		<path fill="#D3DBDF" d="M93.263,64.976c0.435-0.586,0.838-1.188,1.214-1.811v-3.711h-1.214V64.976z"/>
		<path fill="#D3DBDF" d="M96.816,58.103c0.167-0.533,0.329-1.072,0.461-1.62h-4.013v0.991h0.606
			C94.945,57.441,96.141,57.431,96.816,58.103z"/>
		<rect x="68.991" y="56.351" fill="#D3DBDF" width="1.09" height="11.031"/>
		<path fill="#D3DBDF" d="M70.079,53.153H65.4v20.256c0.355,0.129,0.72,0.248,1.083,0.361V54.218h3.596
			c0.928,0,1.578,0.194,1.954,0.557c0.38,0.357,0.557,1.01,0.557,1.938v10.31c0,0.934-0.177,1.58-0.557,1.939
			c-0.568,0.57-1.622,0.57-2.491,0.57c-0.19-0.018-0.379-0.018-0.554-0.018v4.889c0.362,0.068,0.72,0.133,1.091,0.188v-4.012
			c1.656,0,2.743-0.568,3.25-1.701v5.975c0.118,0,0.237,0,0.363,0c0.229,0,0.453,0,0.683-0.004V56.903
			c0-0.951,0.188-1.618,0.548-1.998c0.36-0.379,1.016-0.568,1.927-0.568c0.932,0,2.291-0.135,3.002,0.568
			c0.362,0.381,0.534,1.047,0.534,1.998v5.283h-2.468V56.54H76.85v18.109c0.356-0.041,0.714-0.098,1.068-0.16V63.253h2.468v10.672
			c0.503-0.146,1.009-0.309,1.502-0.482v-9.77c0-1.1,0.265-1.939,1.393-2.317l-1.243-6.794h2.494l0.414,7.418h0.313l0.414-7.418
			h2.626l-1.402,6.794c1.175,0.415,1.402,1.142,1.402,2.317v6.307c0.728-0.547,1.431-1.135,2.098-1.764V54.505h7.297
			c0.053-0.325,0.102-0.656,0.143-0.99H80.745l0.242,1.227c-0.543-0.988-1.567-1.49-3.068-1.49h-1.067
			c-1.813,0-2.917,0.721-3.328,2.154C73.129,53.904,71.985,53.153,70.079,53.153z M89.168,62.019l-1.173-1.124l1.173-6.096V62.019z"
			/>
		<path fill="#D3DBDF" d="M84.528,72.31c0.385-0.188,0.758-0.387,1.127-0.596v-8.35h-1.127V72.31z"/>
	</g>
</g>
</svg>
