<?xml version="1.0" encoding="utf-8"?>
<!-- Generator: Adobe Illustrator 15.0.0, SVG Export Plug-In . SVG Version: 6.00 Build 0)  -->
<!DOCTYPE svg PUBLIC "-//W3C//DTD SVG 1.1//EN" "http://www.w3.org/Graphics/SVG/1.1/DTD/svg11.dtd">
<svg version="1.1" xmlns="http://www.w3.org/2000/svg" xmlns:xlink="http://www.w3.org/1999/xlink" x="0px" y="0px" width="146px"
	 height="93px" viewBox="0 0 146 93" enable-background="new 0 0 146 93" xml:space="preserve">
<g id="Слой_1">
	<g id="Слой_1_1_">
		<g>
			<path fill="#FFFFFF" d="M146,86.993c0,3.313-2.688,6-6,6H6c-3.313,0-6-2.688-6-6v-81c0-3.313,2.687-6,6-6h134
				c3.313,0,6,2.687,6,6V86.993z"/>
			<path fill="#DBE1E5" d="M139.544,93.007H6.456C2.896,93.007,0,90.121,0,86.575V6.436C0,2.89,2.896,0.005,6.456,0.005h133.088
				c3.56,0,6.456,2.885,6.456,6.431v80.139C146,90.121,143.104,93.007,139.544,93.007z M6.456,0.995
				c-3.012,0-5.462,2.441-5.462,5.441v80.139c0,3.001,2.451,5.438,5.462,5.438h133.088c3.013,0,5.463-2.438,5.463-5.438V6.436
				c0-3-2.45-5.441-5.463-5.441H6.456z"/>
		</g>
	</g>
</g>
<g id="Слой_2">
	<g>
		<path fill="#ffcb05" d="M86.18,45.07h1c-0.168-1-0.557-2.462-1.125-3.267L85.363,42c-0.43,0.438-1.104,0.438-1.531,0
			c-0.434-0.436-0.381-1.143,0.051-1.58l0.801-0.707c-0.793-0.569-1.52-0.973-2.506-1.144v1.004c0,0.618-0.377,1.117-0.988,1.117
			s-0.988-0.499-0.988-1.117v-1.004c-0.988,0.171-2.242,0.607-3.039,1.176l0.377,0.739c0.432,0.436,0.432,1.208,0,1.645
			c-0.43,0.437-1.129,0.565-1.559,0.127l-0.703-0.454c-0.566,0.806-0.969,2.268-1.139,3.268h1.004c0.611,0,1.105,0.382,1.105,1
			c0,0.619-0.494,1-1.105,1h-1.004c0.17,0,0.592,1.551,1.162,2.354l0.719-1.106c0.432-0.438,1.17-0.438,1.602,0
			c0.432,0.435,0.512,1.142,0.082,1.578l-0.539,0.708c0.795,0.572,2.051,0.974,3.039,1.146v-1.007c0-0.616,0.377-1.116,0.988-1.116
			s0.988,0.5,0.988,1.116v1.007c0.986-0.173,1.715-0.55,2.506-1.119l-0.904-0.685c-0.43-0.435-0.43-1.094,0-1.528
			c0.432-0.436,1.131-0.339,1.561,0.098l0.703,0.912c0.566-0.807,0.969-2.357,1.139-2.357H86.18c-0.611,0-1.105-0.381-1.105-1
			C85.074,45.452,85.568,45.07,86.18,45.07z M80.662,47.641c-1.354,0-2.451-1.111-2.451-2.482c0-1.37,1.098-2.481,2.451-2.481
			s2.451,1.111,2.451,2.481C83.113,46.53,82.016,47.641,80.662,47.641z"/>
		<path fill="#ffcb05" d="M96.09,27.937H49.91c-0.571,0-1.035,0.471-1.035,1.05v31.167c0,0.579,0.464,1.05,1.035,1.05h46.18
			c0.57,0,1.035-0.471,1.035-1.05V28.987C97.125,28.408,96.66,27.937,96.09,27.937z M58.756,52.48c0,0.617-0.506,1.115-1.13,1.115
			s-1.131-0.498-1.131-1.115V36.188c0-0.617,0.507-1.115,1.131-1.115s1.13,0.499,1.13,1.115V52.48z M86.904,51.479l-0.002,0.001
			v0.001c-1.598,1.617-3.803,2.615-6.242,2.615c-2.436,0-4.645-0.998-6.24-2.615v-0.001l-0.002-0.001
			c-1.6-1.616-2.585-3.85-2.585-6.32c0-4.937,3.952-8.938,8.829-8.938c4.873,0,8.826,4.002,8.826,8.938
			C89.488,47.627,88.504,49.862,86.904,51.479z"/>
		<path fill="#ffcb05" d="M103.129,24.118c0-1.131-0.859-2.048-1.918-2.048H44.789c-1.059,0-1.917,0.917-1.917,2.048v40.905
			c0,1.131,0.858,2.048,1.917,2.048h56.422c1.059,0,1.916-0.917,1.916-2.048L103.129,24.118z M99.008,60.154
			c0,1.626-1.309,2.949-2.918,2.949H49.91c-1.608,0-2.917-1.323-2.917-2.95V28.987c0-1.626,1.309-2.95,2.917-2.95h46.18
			c1.609,0,2.918,1.324,2.918,2.95V60.154z"/>
		<path fill="#d2995b" d="M105.104,24.118c0-2.235-1.744-4.048-3.893-4.048H44.789c-2.149,0-3.893,1.813-3.893,4.048v40.905
			c0,2.235,1.742,4.048,3.893,4.048h5.78v3c0,1.104,0.885,2,1.976,2h2.963c1.091,0,1.976-0.896,1.976-2v-3h30.622v3
			c0,1.104,0.887,2,1.977,2h2.963c1.09,0,1.975-0.896,1.975-2v-3h6.191c2.148,0,3.893-1.813,3.893-4.048V24.118z M101.211,67.07
			H44.789c-1.059,0-1.917-0.917-1.917-2.048V24.118c0-1.131,0.858-2.048,1.917-2.048h56.422c1.059,0,1.918,0.917,1.918,2.048
			l-0.002,40.905C103.127,66.153,102.27,67.07,101.211,67.07z"/>
		<path fill="#d2995b" d="M57.626,35.073c-0.624,0-1.131,0.498-1.131,1.115V52.48c0,0.617,0.507,1.115,1.131,1.115
			s1.13-0.498,1.13-1.115V36.188C58.756,35.572,58.25,35.073,57.626,35.073z"/>
		<ellipse fill="#d2995b" cx="80.662" cy="45.159" rx="2.451" ry="2.482"/>
		<path fill="#d2995b" d="M80.662,36.221c-4.877,0-8.829,4.001-8.829,8.938c0,2.47,0.985,4.704,2.585,6.32l0.002,0.001v0.001
			c1.596,1.617,3.805,2.615,6.24,2.615c2.439,0,4.645-0.998,6.242-2.615v-0.001l0.002-0.001c1.6-1.616,2.584-3.852,2.584-6.32
			C89.488,40.223,85.535,36.221,80.662,36.221z M86.18,47.07h1.004c-0.17,0-0.572,1.551-1.139,2.357l-0.703-0.912
			c-0.43-0.437-1.129-0.533-1.561-0.098c-0.43,0.435-0.43,1.094,0,1.528l0.904,0.685c-0.791,0.569-1.52,0.946-2.506,1.119v-1.007
			c0-0.616-0.377-1.116-0.988-1.116s-0.988,0.5-0.988,1.116v1.007c-0.988-0.173-2.244-0.574-3.039-1.146l0.539-0.708
			c0.43-0.437,0.35-1.144-0.082-1.578c-0.432-0.438-1.17-0.438-1.602,0l-0.719,1.106c-0.57-0.803-0.992-2.354-1.162-2.354h1.004
			c0.611,0,1.105-0.381,1.105-1c0-0.618-0.494-1-1.105-1h-1.004c0.17-1,0.572-2.462,1.139-3.268l0.703,0.454
			c0.43,0.438,1.129,0.31,1.559-0.127c0.432-0.437,0.432-1.208,0-1.645l-0.377-0.739c0.797-0.569,2.051-1.005,3.039-1.176v1.004
			c0,0.618,0.377,1.117,0.988,1.117s0.988-0.499,0.988-1.117v-1.004c0.986,0.171,1.713,0.575,2.506,1.144l-0.801,0.707
			c-0.432,0.437-0.484,1.144-0.051,1.58c0.428,0.438,1.102,0.438,1.531,0l0.691-0.197c0.568,0.805,0.957,2.267,1.125,3.267h-1
			c-0.611,0-1.105,0.382-1.105,1C85.074,46.689,85.568,47.07,86.18,47.07z"/>
		<path fill="#d2995b" d="M96.09,26.037H49.91c-1.608,0-2.917,1.324-2.917,2.95v31.167c0,1.627,1.309,2.95,2.917,2.95h46.18
			c1.609,0,2.918-1.323,2.918-2.949V28.987C99.008,27.36,97.699,26.037,96.09,26.037z M97.125,60.154c0,0.579-0.465,1.05-1.035,1.05
			H49.91c-0.571,0-1.035-0.471-1.035-1.05V28.987c0-0.579,0.464-1.05,1.035-1.05h46.18c0.57,0,1.035,0.471,1.035,1.05V60.154z"/>
	</g>
</g>
</svg>
