<?xml version="1.0" encoding="utf-8"?>
<!-- Generator: Adobe Illustrator 15.0.0, SVG Export Plug-In . SVG Version: 6.00 Build 0)  -->
<!DOCTYPE svg PUBLIC "-//W3C//DTD SVG 1.1//EN" "http://www.w3.org/Graphics/SVG/1.1/DTD/svg11.dtd">
<svg version="1.1" xmlns="http://www.w3.org/2000/svg" xmlns:xlink="http://www.w3.org/1999/xlink" x="0px" y="0px" width="146px"
	 height="93px" viewBox="0 0 146 93" enable-background="new 0 0 146 93" xml:space="preserve">
<g id="Слой_1">
	<g id="Слой_3">
		<g id="Слой_1_1_">
			<g>
				<path fill="#FFFFFF" d="M146,86.993c0,3.313-2.688,6-6,6H6c-3.313,0-6-2.688-6-6v-81c0-3.313,2.687-6,6-6h134
					c3.313,0,6,2.687,6,6V86.993z"/>
				<path fill="#DBE1E5" d="M139.544,93.007H6.456C2.896,93.007,0,90.12,0,86.575V6.437C0,2.89,2.896,0.005,6.456,0.005h133.088
					c3.56,0,6.456,2.885,6.456,6.432v80.139C146,90.12,143.104,93.007,139.544,93.007z M6.456,0.995
					c-3.012,0-5.462,2.441-5.462,5.441v80.139c0,3,2.451,5.438,5.462,5.438h133.088c3.013,0,5.463-2.438,5.463-5.438V6.437
					c0-3-2.45-5.441-5.463-5.441H6.456z"/>
			</g>
		</g>
	</g>
</g>
<g id="Слой_3_1_">
	<g>
		<path fill="#FFCB05" d="M84.233,53.267v-5.8c0-2.132,1.681-3.865,3.745-3.865h11.233v-8.698c0-1.598-1.258-2.899-2.808-2.899
			H47.723c-1.054,0-2.026-0.36-2.81-0.969v34.792c0,1.599,1.261,2.899,2.81,2.899h48.682c1.55,0,2.808-1.301,2.808-2.899v-8.695
			H87.979C85.914,57.133,84.233,55.397,84.233,53.267z"/>
		<path fill="#EFB706" d="M47.723,30.072h48.682c1.054,0,2.026,0.36,2.808,0.969v-0.003c0-1.599-1.258-2.899-2.808-2.899h-0.679
			h-0.258H88.06H55.436h-7.667c-0.542,0-0.981-0.433-0.981-0.967c0-0.533,0.439-0.966,0.981-0.966h7.667H88.06h7.408h0.258h0.679
			c1.054,0,2.026,0.36,2.808,0.969v-0.002c0-1.598-1.258-2.899-2.808-2.899H47.723c-1.549,0-2.81,1.301-2.81,2.899
			S46.174,30.072,47.723,30.072z"/>
		<path fill="#FFCB05" d="M100.155,45.534c-0.004,0-0.004,0-0.007,0c-0.004,0-0.01,0-0.014,0H87.979
			c-1.033,0-1.872,0.867-1.872,1.933v5.8c0,1.065,0.839,1.934,1.872,1.934h12.17c0.517,0,0.938-0.434,0.938-0.967v-7.732
			C101.086,45.97,100.667,45.538,100.155,45.534z"/>
		<circle fill="#D1843E" cx="91.301" cy="50.356" r="2.373"/>
		<path fill="#D1843E" d="M101.086,43.768v-8.864v-7.731c0-2.664-2.101-4.832-4.682-4.832H47.723c-2.581,0-4.681,2.168-4.681,4.832
			v38.655c0,2.664,2.1,4.831,4.681,4.831h48.682c2.581,0,4.682-2.167,4.682-4.831v-8.862c1.088-0.398,1.872-1.473,1.872-2.732
			v-7.732C102.958,45.241,102.174,44.167,101.086,43.768z M47.723,24.273h48.682c1.55,0,2.808,1.301,2.808,2.899v0.002
			c-0.781-0.608-1.754-0.969-2.808-0.969h-0.679h-0.258H88.06H55.436h-7.667c-0.542,0-0.981,0.433-0.981,0.966
			c0,0.534,0.439,0.967,0.981,0.967h7.667H88.06h7.408h0.258h0.679c1.55,0,2.808,1.3,2.808,2.899v0.003
			c-0.781-0.608-1.754-0.969-2.808-0.969H47.723c-1.549,0-2.81-1.301-2.81-2.899S46.174,24.273,47.723,24.273z M99.212,65.828
			c0,1.599-1.258,2.899-2.808,2.899H47.723c-1.549,0-2.81-1.301-2.81-2.899V31.036c0.783,0.608,1.756,0.969,2.81,0.969h48.682
			c1.55,0,2.808,1.301,2.808,2.899v8.698H87.979c-2.064,0-3.745,1.733-3.745,3.865v5.8c0,2.131,1.681,3.866,3.745,3.866h11.233
			V65.828z M101.086,54.233c0,0.533-0.421,0.967-0.938,0.967h-12.17c-1.033,0-1.872-0.868-1.872-1.934v-5.8
			c0-1.065,0.839-1.933,1.872-1.933h12.156c0.004,0,0.01,0,0.014,0c0.003,0,0.003,0,0.007,0c0.512,0.004,0.931,0.436,0.931,0.967
			V54.233z"/>
	</g>
</g>
</svg>
